<svg width="642" height="420" viewBox="0 0 642 420" fill="none" xmlns="http://www.w3.org/2000/svg">
<path fill-rule="evenodd" clip-rule="evenodd" d="M46.4298 244.356C42.5756 236.672 38.6819 229.054 34.7487 221.501C30.8154 213.948 26.8032 206.527 22.7119 199.236C18.6207 191.946 14.5905 184.693 10.6213 177.476C6.69514 170.464 2.83001 163.488 -0.974104 156.55C-4.77816 149.611 -8.29866 142.754 -11.5356 135.978C-14.9736 129.26 -18.0669 122.66 -20.8156 116.178C-23.5644 109.696 -25.9685 103.332 -28.0281 97.0865C-30.0086 90.7097 -31.5835 84.4877 -32.7527 78.4207C-33.9219 72.3536 -34.585 66.4126 -34.742 60.5975C-34.8989 54.7825 -34.3882 49.1014 -33.2097 43.5543C-32.1533 37.9336 -30.4902 32.4101 -28.2204 26.9838C-26.1517 21.6152 -23.5158 16.4093 -20.3127 11.3662C-17.1886 6.45433 -13.6195 1.63172 -9.60509 -3.1016C-5.59074 -7.8349 -1.17075 -12.4134 3.65484 -16.837C8.40147 -21.1293 13.3922 -25.2747 18.627 -29.2731C23.9838 -33.1981 29.6457 -36.9392 35.6128 -40.4967C41.3788 -43.9964 47.389 -47.3492 53.6431 -50.555C59.9404 -53.5561 66.2806 -56.3525 72.6639 -58.9443C79.1693 -61.4625 85.7178 -63.7761 92.3092 -65.885C98.9007 -67.9938 105.496 -69.8325 112.094 -71.4007C118.693 -72.969 125.295 -74.2671 131.9 -75.2948C138.585 -76.4537 145.252 -77.4448 151.9 -78.2678C158.671 -79.0174 165.363 -79.6358 171.976 -80.1229C178.667 -80.7413 185.481 -81.2862 192.417 -81.7576C199.152 -82.1713 205.926 -82.6506 212.74 -83.1955C219.675 -83.6668 226.651 -84.2038 233.665 -84.8064C240.68 -85.409 247.674 -86.1139 254.645 -86.9212C261.818 -87.7862 269.009 -88.8191 276.218 -90.02C283.426 -91.2208 290.754 -92.6184 298.199 -94.2129C305.602 -96.012 313.084 -97.9423 320.645 -100.004C328.162 -102.27 335.759 -104.667 343.435 -107.196C351.11 -109.725 358.804 -112.421 366.516 -115.286C374.148 -118.019 381.82 -120.818 389.532 -123.682C397.165 -126.415 404.758 -129.083 412.311 -131.685C419.944 -134.418 427.419 -136.889 434.735 -139.098C442.253 -141.364 449.613 -143.368 456.814 -145.109C463.937 -146.719 470.963 -148.031 477.891 -149.043C484.82 -150.054 491.533 -150.571 498.031 -150.591C504.73 -150.668 511.134 -150.119 517.244 -148.943C523.311 -147.971 529.205 -146.299 534.927 -143.926C540.527 -141.626 545.972 -138.794 551.263 -135.429C556.475 -131.933 561.472 -127.941 566.253 -123.453C570.833 -118.908 575.276 -113.998 579.583 -108.723C583.811 -103.316 587.842 -97.5821 591.675 -91.5199C595.507 -85.4578 599.121 -79.1699 602.516 -72.6565C605.954 -65.9383 609.112 -59.0312 611.99 -51.9353C614.947 -44.9705 617.624 -37.8169 620.021 -30.4743C622.539 -23.0583 624.796 -15.6213 626.791 -8.16336C628.786 -0.705405 630.619 6.74465 632.29 14.1868C633.962 21.629 635.411 29.0265 636.637 36.3794C637.742 43.6588 638.685 50.9303 639.466 58.1939C640.204 65.2528 640.76 72.2015 641.132 79.0399C641.425 86.0096 641.535 92.869 641.462 99.6182C641.346 106.163 641.007 112.662 640.446 119.118C639.763 125.499 638.936 131.705 637.966 137.735C636.795 143.823 635.48 149.735 634.021 155.471C632.441 161.134 630.616 166.649 628.547 172.018C626.479 177.386 624.205 182.542 621.727 187.486C619.127 192.356 616.323 197.013 613.314 201.458C610.226 206.034 606.911 210.295 603.371 214.241C599.752 218.319 595.906 222.081 591.835 225.529C587.806 229.181 583.551 232.518 579.071 235.54C574.712 238.636 570.149 241.52 565.381 244.19C560.735 246.934 555.924 249.4 550.948 251.588C545.972 253.776 540.914 255.825 535.772 257.734C530.631 259.644 525.487 261.283 520.339 262.652C515.233 264.226 510.064 265.493 504.829 266.453C499.638 267.617 494.504 268.548 489.428 269.245C484.273 270.074 479.276 270.64 474.436 270.944C469.396 271.305 464.496 271.572 459.736 271.745C455.054 271.786 450.413 271.762 445.81 271.672C441.208 271.582 436.645 271.427 432.122 271.206C427.599 270.985 423.097 270.866 418.617 270.849C414.216 270.702 409.796 270.722 405.359 270.911C400.879 270.894 396.402 271.148 391.929 271.672C387.334 272.123 382.681 272.807 377.971 273.725C373.261 274.643 368.515 275.897 363.733 277.486C358.75 279.133 353.67 281.08 348.493 283.325C343.438 285.644 338.146 288.357 332.617 291.463C327.21 294.643 321.587 298.318 315.749 302.49C309.912 306.661 303.937 311.198 297.826 316.099C291.672 320.795 285.482 325.827 279.257 331.195C272.909 336.49 266.543 341.952 260.159 347.583C253.854 353.082 247.488 358.544 241.061 363.97C234.757 369.469 228.448 374.698 222.136 379.657C215.867 384.82 209.735 389.619 203.739 394.053C197.743 398.487 191.862 402.454 186.096 405.953C180.33 409.453 174.819 412.391 169.563 414.768C164.264 416.94 159.198 418.448 154.366 419.293C149.534 420.137 145.014 420.186 140.807 419.44C136.6 418.695 132.644 417.117 128.939 414.708C125.235 412.298 121.664 409.254 118.225 405.574C114.988 401.837 111.844 397.531 108.793 392.655C105.822 387.647 102.925 382.239 100.105 376.429C97.2841 370.618 94.5174 364.304 91.8046 357.487C89.1348 350.874 86.4005 343.953 83.6017 336.726C80.9248 329.573 78.1834 322.112 75.3775 314.344C72.6145 306.781 69.6686 299.108 66.5395 291.325C63.4895 283.41 60.3389 275.524 57.0878 267.667C53.6356 259.868 50.083 252.097 46.4298 244.356Z" fill="#CBEBDA"/>
</svg>
